# xmcd
#
# Track frame offsets: 
#        150
#        12429
#        25876
#        39228
#        50675
#        61288
#        73447
#        87757
#        99548
#        111421
#        123563
#        137414
#        148746
#        160956
#        173187
#        185336
#        197248
#        210471
#        224827
#        236941
#
# Disc length: 3316 seconds
#
# Revision: 0
# Processed by: cddbd v1.5.1PL0 Copyright (c) Steve Scherf et al.
# Submitted via: ExactAudioCopy v0.95a5
#
DISCID=360cf214
DTITLE=Various Artist - Jump 'n' Jive [CD2)
DYEAR=2004
DGENRE=Blues
TTITLE0=Jimmie Lunceford - Shut Up
TTITLE1=Jimmie Lunceford - Call The Police
TTITLE2=Louis Prima - Brooklyn Boogie
TTITLE3=Slim Gaillard - Flat Foot Floogie
TTITLE4=Babs Gonzales - Get Out Of That Bed
TTITLE5=Babs Gonzales - The Boss Is Back
TTITLE6=Dallas Bartley - You're The Greatest
TTITLE7=Dallas Bartley - I Know What It's All About
TTITLE8=Harold Land - Swingin' On Savoy
TTITLE9=Harold Land - San Diego Bounce
TTITLE10=Big Jay McNeely - Man Eater
TTITLE11=Redd Lyte - The Little Red Hen
TTITLE12=Redd Lyte - Good Time Blues
TTITLE13=The Robins - The Turkey Hop
TTITLE14=Marilyn Scott - Beer Bottle Boogie
TTITLE15=Little Esther - Cupid's Boogie
TTITLE16=Little Esther - Wedding Boogie
TTITLE17=Jimmy Rushing - Jimmy's Round The Clock Blues
TTITLE18=Johnny Otis - New Orleans Shuffle
TTITLE19=Johnny Otis - All Night Long
EXTD=
EXTT0=
EXTT1=
EXTT2=
EXTT3=
EXTT4=
EXTT5=
EXTT6=
EXTT7=
EXTT8=
EXTT9=
EXTT10=
EXTT11=
EXTT12=
EXTT13=
EXTT14=
EXTT15=
EXTT16=
EXTT17=
EXTT18=
EXTT19=
PLAYORDER=
